<svg width="106" height="106" viewBox="0 0 106 106" fill="none" xmlns="http://www.w3.org/2000/svg">
<path d="M78.432 14.6902C68.1262 14.6902 57.8089 19.535 52.8366 28.7822C47.8644 19.5352 37.5469 14.6902 27.2411 14.6902C17.6179 14.6902 7.88801 18.6931 0.907227 25.6739L5.285 30.0517L52.8366 44.6097L100.388 30.0517L104.766 25.6739C97.7849 18.6931 88.0552 14.6902 78.432 14.6902V14.6902Z" fill="#ECECF1"/>
<path d="M104.765 25.6739C97.7843 18.6931 88.0546 14.6902 78.4314 14.6902C68.1256 14.6902 57.8083 19.535 52.8359 28.7822L52.8359 44.6097L100.388 30.0517L104.765 25.6739Z" fill="#CFD4E2"/>
<path d="M52.8361 6.10352e-05C51.1249 6.10352e-05 49.7402 1.38474 49.7402 3.09593L49.7402 9.28768C49.7402 10.9989 51.1249 12.3836 52.8361 12.3836C54.5473 12.3836 55.932 10.9989 55.932 9.28768L55.932 3.09593C55.932 1.38474 54.5473 6.10352e-05 52.8361 6.10352e-05V6.10352e-05Z" fill="#FFE470"/>
<path d="M102.577 24.767C85.8909 24.767 68.9808 28.7095 54.0667 36.171L52.8362 36.7854L51.6057 36.171C36.6917 28.7093 19.7816 24.767 3.09587 24.767C1.38468 24.767 2.024e-08 26.1517 4.52526e-08 27.8629L9.56337e-07 90.1931C9.8135e-07 91.9043 1.38468 93.289 3.09587 93.289C18.8231 93.289 34.7749 97.0078 48.8364 104.04L51.4515 105.346C51.8922 105.565 52.3652 105.671 52.8362 105.671C53.3115 105.671 53.7848 105.563 54.2209 105.346L56.8361 104.04C70.8976 97.0078 86.8493 93.289 102.577 93.289C104.288 93.289 105.672 91.9043 105.672 90.1931L105.672 27.8629C105.672 26.1517 104.288 24.767 102.577 24.767V24.767Z" fill="#55A7D9"/>
<path d="M54.2206 105.346L56.8358 104.04C70.8973 97.0078 86.849 93.2891 102.576 93.2891C104.287 93.2891 105.672 91.9044 105.672 90.1932L105.672 27.863C105.672 26.1518 104.287 24.7671 102.576 24.7671C85.8906 24.7671 68.9805 28.7096 54.0664 36.171L52.8359 36.7855L52.8359 105.671C53.3113 105.671 53.7845 105.563 54.2206 105.346Z" fill="#2D6DB4"/>
<path d="M38.2637 11.4765L32.072 5.28471C30.8627 4.07546 30.8627 2.11618 32.072 0.906936C33.2812 -0.302312 35.2405 -0.302312 36.4497 0.906936L42.6415 7.09868C43.8507 8.30793 43.8507 10.2672 42.6415 11.4765C41.432 12.6857 39.473 12.6859 38.2637 11.4765V11.4765Z" fill="#FFE470"/>
<path d="M55.9318 9.28768L55.9318 3.09593C55.9318 1.38474 54.5471 6.10352e-05 52.8359 6.10352e-05L52.8359 12.3836C54.5471 12.3836 55.9318 10.9989 55.9318 9.28768Z" fill="#FFC473"/>
<path d="M63.031 11.4765C61.8217 10.2672 61.8217 8.30793 63.031 7.09868L69.2227 0.906936C70.4319 -0.302312 72.3912 -0.302312 73.6005 0.906936C74.8097 2.11618 74.8097 4.07546 73.6005 5.28471L67.4087 11.4765C66.1993 12.6857 64.2402 12.6859 63.031 11.4765Z" fill="#FFC473"/>
<path d="M89.6214 50.4963C86.625 50.8531 83.6544 51.3806 80.6995 51.986L80.6995 46.6446C80.6995 44.9334 79.3148 43.5487 77.6036 43.5487C75.8925 43.5487 74.5078 44.9334 74.5078 46.6446L74.5078 53.4437C70.9985 54.3805 67.5243 55.4505 64.1257 56.7365C62.5263 57.3412 61.7191 59.128 62.3239 60.7273C62.9337 62.3402 64.7335 63.127 66.3146 62.5291C69.0023 61.5124 71.7448 60.6532 74.5078 59.867L74.5078 77.6033C74.5078 79.3145 75.8925 80.6992 77.6036 80.6992C79.3148 80.6992 80.6995 79.3145 80.6995 77.6033L80.6995 58.3146C83.8914 57.6188 87.1074 57.0316 90.3529 56.6457C92.049 56.4432 93.2642 54.9042 93.0617 53.2051C92.8593 51.509 91.3113 50.2694 89.6214 50.4963Z" fill="#FFE470"/>
<path d="M80.6986 77.6032L80.6986 58.3145C83.8905 57.6188 87.1065 57.0316 90.352 56.6456C92.0481 56.4432 93.2633 54.9041 93.0608 53.2051C92.8584 51.509 91.3104 50.2694 89.6203 50.4962C86.6239 50.853 83.6533 51.3806 80.6984 51.9859L80.6984 46.6445C80.6984 44.9333 79.3137 43.5486 77.6025 43.5486L77.6025 80.6991C79.3139 80.6991 80.6986 79.3144 80.6986 77.6032V77.6032Z" fill="#FFC473"/>
</svg>
