<svg width="196" height="178" viewBox="0 0 196 178" fill="none" xmlns="http://www.w3.org/2000/svg">
<ellipse cx="98.1845" cy="170.555" rx="97.8153" ry="7.29649" fill="#C5E3F5"/>
<g opacity="0.505">
<path opacity="0.505" d="M181.038 111.931C183.545 130.615 122.745 142.802 70.4129 134.297C18.0807 125.792 -5.92696 92.5779 19.0451 74.8802C44.0172 57.1825 178.531 93.2452 181.038 111.931Z" fill="#F2F2F2"/>
</g>
<g opacity="0.7">
<path opacity="0.7" d="M183.122 56.2945C176.896 56.7868 172.899 60.8802 171.038 66.6056C170.036 69.6909 169.92 72.8607 169.363 76.0313C168.525 80.8018 166.721 84.4169 163.196 87.8156C162.187 88.7605 161.352 89.8735 160.727 91.1045C159.543 92.2779 158.578 93.6521 157.877 95.1628C156.95 97.2014 156.687 99.6498 157.758 101.683C158.046 102.23 158.765 103.327 159.509 103.826C156.722 109.74 155.189 116.218 155.362 122.688C155.466 126.593 155.658 130.5 155.88 134.4C155.94 135.448 156.283 137.177 156.797 135.421C157.267 133.814 156.677 131.292 156.623 129.614C156.357 121.437 156.13 114.003 159.508 106.364C159.862 105.564 160.236 104.77 160.629 103.982C160.652 103.968 160.674 103.953 160.695 103.937C160.71 103.948 160.722 103.961 160.738 103.972C160.763 103.928 160.797 103.875 160.837 103.816C160.955 103.687 161.057 103.545 161.141 103.392C161.441 102.978 161.779 102.492 161.781 102.226C161.781 102.224 161.781 102.221 161.781 102.219C163.913 98.8406 166.227 95.5804 168.714 92.4526C168.695 92.4755 171.368 88.8506 170.954 90.8552C170.755 91.8212 168.79 93.6611 167.996 94.6842C166.018 97.2394 164.172 99.8929 162.464 102.635C162.233 102.767 161.908 103.415 161.673 103.898C161.543 104.142 161.421 104.389 161.302 104.604C167.374 106.603 172.097 102.577 175.318 97.8942C175.322 97.8888 175.325 97.8831 175.329 97.8777C176.309 96.5836 177.313 95.2987 178.567 94.2759C180.66 92.5692 182.901 92.2681 185.368 91.4279C192.097 89.1374 194.958 80.4493 195.866 74.0028C196.891 66.7298 191.877 55.5775 183.122 56.2945Z" fill="#55A7D9"/>
<path opacity="0.7" d="M170.824 35.9293C164.433 42.5557 161.346 51.7466 158.901 60.3868C156.171 70.0372 154.368 79.8366 154.299 89.8699C154.254 96.4618 154.074 103.095 154.46 109.68C154.59 112.022 154.838 114.356 155.203 116.674C155.234 116.864 156.066 122.029 156.863 120.825C157.316 120.141 156.01 115.467 155.912 114.689C155.402 110.302 155.182 105.887 155.255 101.472C155.299 94.2006 155.084 86.9667 155.823 79.7226C155.901 78.6219 156.053 77.5277 156.279 76.4474C156.552 75.3224 156.204 75.8134 157.096 75.3682C157.962 74.9353 159.033 74.997 159.932 74.4539C163.498 72.2994 165.322 66.7651 166.743 63.1334C168.367 58.981 169.354 54.5526 170.142 50.1826C170.723 46.9885 171.133 43.7658 171.37 40.5283C171.399 39.4886 171.492 38.4517 171.65 37.4236C171.705 37.1517 171.978 36.671 171.968 36.4303C171.947 35.9207 171.638 35.6211 171.613 35.1929C171.345 35.4328 171.083 35.6783 170.826 35.9295" fill="#55A7D9"/>
<path opacity="0.7" d="M135.98 124.213C135.98 129.476 138.079 134.523 141.814 138.244C145.548 141.965 150.614 144.055 155.896 144.055C161.178 144.055 166.243 141.965 169.978 138.244C173.713 134.523 175.811 129.476 175.811 124.213" fill="#55A7D9"/>
<path opacity="0.7" d="M177.307 131.554C176.544 131.578 175.8 131.318 175.22 130.823C174.696 130.329 174.308 129.709 174.095 129.022C173.583 127.552 173.535 125.746 173.503 124.551C173.419 121.439 173.098 118.196 170.239 115.731C169.903 115.441 169.544 115.166 169.196 114.899C168.887 114.66 168.566 114.414 168.263 114.159L168.119 114.038C167.144 113.222 166.137 112.38 166.014 111.045C165.945 110.304 166.065 109.759 166.37 109.425C166.528 109.272 166.718 109.155 166.926 109.081C167.135 109.007 167.356 108.979 167.576 108.998C167.921 109.004 168.265 109.046 168.601 109.123C168.656 109.135 168.8 109.19 169 109.265C169.573 109.481 170.528 109.842 171.039 109.842C171.196 109.842 171.299 109.807 171.345 109.738C171.367 109.693 171.377 109.644 171.374 109.594C171.372 109.544 171.357 109.496 171.332 109.453C171.214 109.172 170.81 108.923 170.13 108.714C168.763 108.566 167.471 108.433 166.702 108.433C166.536 108.428 166.369 108.44 166.205 108.468C163.657 109.025 161.571 110.935 160.004 114.144C158.459 117.308 157.869 120.83 157.654 122.647C157.596 123.14 157.544 123.673 157.494 124.278H156.441C156.498 122.962 156.628 121.65 156.832 120.349C157.13 118.588 157.889 115.194 159.614 112.241C160.316 110.99 161.236 109.874 162.332 108.946C163.408 108.046 164.714 107.462 166.104 107.261C166.307 107.242 166.51 107.235 166.713 107.238C167.109 107.238 167.586 107.253 168.055 107.281C168.512 107.025 169.021 106.876 169.544 106.842C169.752 106.827 169.966 106.819 170.179 106.819C171.404 106.833 172.618 107.055 173.769 107.474C174.98 107.909 176.132 108.492 177.198 109.211C178.273 109.928 179.266 110.758 180.161 111.689C181.006 112.556 181.743 113.522 182.355 114.566C183.25 116.119 183.711 117.98 183.722 120.098C183.714 122.033 183.39 123.954 182.765 125.786C182.334 127.134 181.686 128.404 180.845 129.544C179.815 130.864 178.641 131.539 177.356 131.554L177.307 131.554Z" fill="#55A7D9"/>
</g>
<g opacity="0.5">
<path opacity="0.5" d="M48.7429 30.2901C49.8887 28.6614 52.0166 24.525 53.6303 23.9431C54.6697 23.5682 54.3669 27.4456 54.3794 28.1852C54.3856 31.0413 54.1935 33.8945 53.8046 36.7243C53.1834 41.8397 51.1496 46.3961 48.3607 50.7491C46.9257 52.9893 45.2422 55.2567 42.9107 56.6547C41.8375 57.2983 40.5462 57.4062 39.4864 57.9607C38.2522 58.6062 38.9244 58.0844 38.3678 59.3659C37.5952 61.1452 37.3483 63.4403 36.991 65.3389C35.3503 74.0539 31.377 120.123 32.0659 128.987C32.127 129.773 31.0273 129.961 30.9725 129.002C30.6808 123.916 33.2054 88.6954 34.4795 77.1775C35.7535 65.6597 37.0423 55.484 38.3348 51.499C39.9027 46.6643 42.7347 40.8512 45.0918 36.3421C46.174 34.247 47.3937 32.2253 48.7429 30.2901V30.2901Z" fill="#55A7D9"/>
<path opacity="0.5" d="M0.641973 66.3297C2.31131 66.6558 5.03915 70.4174 6.41521 71.8512C8.03866 73.5579 9.54783 75.3691 10.933 77.2729C13.9545 81.3742 16.6281 85.719 18.9264 90.2621C22.6745 97.6255 25.6546 105.352 27.82 113.322C29.1273 118.283 30.0297 123.341 30.5184 128.447C30.6147 129.405 31.6225 136.788 30.1703 136.987C28.8643 137.166 29.2676 131.381 29.2045 130.594C28.4925 121.716 26.3583 113.076 23.3909 104.708C22.7444 102.885 22.1439 100.652 21.1102 99.0111C20.3657 97.8295 21.1048 98.2416 19.7966 97.7942C18.6732 97.4098 17.3932 97.5039 16.2427 97.0331C13.7435 96.0119 11.7413 94.0296 9.9885 92.0359C6.57835 88.1608 3.87752 83.9687 2.47036 79.0033C1.64718 76.2629 1.01305 73.4696 0.572406 70.643C0.469556 69.9091 -0.433178 66.1201 0.641973 66.3297Z" fill="#55A7D9"/>
<path opacity="0.5" d="M7.22949 3.72812C13.5178 14.5934 18.6854 26.5285 22.0219 38.6174C24.0434 45.9418 25.4574 53.4582 26.8621 60.9193C29.0378 72.4728 31.0942 84.0252 31.6794 95.7852C32.2681 107.612 33.4322 121.254 29.5455 132.642C31.4871 121.078 29.6385 108.767 29.3111 97.1307C29.1548 91.5755 28.7014 86.0746 28.1069 80.5517C27.5299 75.1944 26.5874 69.8626 25.7097 64.5474C25.2822 61.9587 24.8376 59.3732 24.376 56.7908C24.2396 56.0199 24.1817 53.733 23.6912 53.2065C23.2007 52.68 20.6772 52.459 19.886 52.0714C18.2839 51.2464 16.7984 50.2136 15.4684 49C12.9261 46.7464 10.7144 43.8022 8.96866 40.9001C4.92969 34.1837 3.31492 25.9876 3.39649 18.2095C3.41204 16.6994 5.84879 0.437611 4.87076 0.213641C4.92969 0.144964 4.98543 0.0737506 5.03799 0C5.77859 1.23637 6.50908 2.47907 7.22949 3.72812Z" fill="#55A7D9"/>
<path opacity="0.5" d="M75.1012 42.9162C75.1983 42.7767 75.8296 41.8069 75.5104 41.8689C76.1591 41.7428 74.6213 42.9385 76.2344 42.2049C75.4684 42.9257 75.9106 43.8629 75.9207 44.8319C75.8963 46.4055 75.7135 47.9727 75.3751 49.51C74.9217 51.943 74.1873 54.3157 73.1866 56.5805C70.9694 61.5182 67.2046 66.2718 62.7352 69.3588C60.5287 70.8831 58.3663 71.4019 55.8497 72.104C54.2603 72.5473 54.1342 73.3666 53.2904 74.9036C51.5338 78.1045 49.8085 81.2936 48.2595 84.6026C46.4098 88.5536 44.6142 92.5089 42.9203 96.5295C37.2139 110.072 32.5695 124.103 30.1292 138.623C30.0695 130.067 32.0564 121.255 34.5624 113.097C36.3881 107.155 38.7637 101.427 41.2995 95.7559C41.9139 94.3822 42.8447 92.6152 43.1055 91.0985C43.288 90.036 42.7299 89.014 42.474 87.8944C41.4771 83.5355 41.5486 78.653 42.4238 74.2692C43.389 69.4368 46.1798 67.1938 50.9011 66.5094C52.6278 66.2591 54.8225 66.3507 56.4056 65.6173C58.1306 64.8185 58.8421 62.1925 59.8229 60.5073C62.4503 55.9398 65.5901 51.6845 69.182 47.8234C70.1777 46.7707 71.248 45.7905 72.3845 44.8903C73.1006 44.3203 74.6134 43.6183 75.1012 42.9162Z" fill="#55A7D9"/>
<path opacity="0.5" d="M20.8105 130.937C20.7819 130.744 20.7954 130.547 20.8501 130.359C20.9048 130.172 20.9994 129.998 21.1274 129.85C21.2555 129.703 21.414 129.584 21.5921 129.503C21.7703 129.422 21.9639 129.38 22.1598 129.38H38.9154C39.1113 129.38 39.3049 129.422 39.483 129.503C39.6612 129.584 39.8197 129.703 39.9477 129.85C40.0757 129.998 40.1703 130.172 40.225 130.359C40.2797 130.547 40.2932 130.744 40.2647 130.937L38.9696 139.686C38.7786 140.976 38.1283 142.155 37.1374 143.008C36.1465 143.86 34.8809 144.329 33.5718 144.329H27.5034C26.1942 144.329 24.9287 143.86 23.9378 143.008C22.9468 142.155 22.2965 140.976 22.1055 139.686L20.8105 130.937Z" fill="#55A7D9"/>
</g>
<path d="M15.4952 130.245C15.2722 130.629 15.0706 131.026 14.8912 131.432C14.8812 130.593 14.9365 129.754 15.0566 128.924C15.271 127.475 15.5989 126.034 15.9066 124.595C16.1279 123.563 16.114 121.704 16.954 120.88C17.1842 120.702 17.2396 121.052 17.2396 121.203C17.2426 121.235 17.2396 120.584 17.0154 120.698C15.6865 121.382 15.256 123.531 14.8307 124.608C14.182 126.151 13.7232 127.766 13.4644 129.419C13.41 129.829 13.3794 130.243 13.3728 130.657C13.3275 130.547 13.2852 130.435 13.2383 130.326C12.4447 128.477 11.4044 126.744 10.1454 125.172C9.82759 124.776 5.83253 120.861 5.51989 121.46C5.55595 121.554 5.62488 121.631 5.71386 121.678C5.71959 121.684 5.71986 121.681 5.71631 121.671C5.95093 122.049 6.61796 122.632 6.82584 122.963C7.32326 123.797 7.77152 124.659 8.16835 125.545C9.04134 127.377 9.8505 129.227 10.6354 131.081C10.8182 131.513 11.0086 131.942 11.2028 132.37C9.19985 129.491 6.52793 126.879 2.84961 125.383C4.10454 126.02 4.92953 127.218 5.77797 128.135C6.80129 129.242 7.87862 130.319 8.90412 131.424C10.1132 132.729 11.5362 134.101 12.6992 135.544C13.8259 137.9 14.9204 140.259 15.5965 142.737C15.3196 141.881 15.5746 140.698 15.5274 139.801C15.4869 139.086 15.4076 138.374 15.2898 137.667C15.4316 137.966 15.539 138.28 15.6098 138.603C15.5591 138.105 15.5007 137.609 15.4382 137.117C15.5992 136.655 15.7571 136.225 15.8638 135.871C16.3967 134.029 17.0945 132.239 17.9486 130.522C18.7858 128.888 19.7169 127.304 20.7371 125.777C21.2156 125.058 21.7006 124.341 22.183 123.623C22.4983 123.153 22.7987 122.4 23.2379 121.951C20.3988 124.537 17.2969 127.143 15.4955 130.245" fill="#6CBDEE"/>
<path d="M7.05469 133.854C7.05469 139.64 7.51301 144.331 13.6644 144.331C19.8157 144.331 20.2741 139.64 20.2741 133.854" fill="#55A7D9"/>
<path d="M152.145 104.542C156.27 104.328 161.374 106.724 161.815 111.189C162.136 114.434 162.039 117.67 162.535 120.91C162.951 123.491 163.752 125.997 164.912 128.343C166.012 130.611 168.289 132.54 168.883 134.963C169.261 136.507 169.05 138.679 168.531 140.189C167.898 142.026 168.235 141.88 169.497 143.421C171.97 146.439 174.196 149.534 175.772 153.141C178.041 158.334 179.53 164.405 178.69 170.091C178.585 170.813 178.458 173.404 177.459 173.586C176.344 173.789 176.865 172.307 176.925 171.828C177.303 168.774 177.639 166.104 177.18 163.002C175.408 151.033 166.783 143.151 161.163 132.996C160.854 132.473 160.202 131.226 159.748 130.403C159.033 129.104 158.312 126.632 157.343 125.669C155.519 123.855 157.197 127.503 157.553 128.199C158.002 129.08 158.497 130.016 158.958 130.788C161.066 134.366 163.419 138.271 165.596 141.959C156.188 144.098 149.555 132.837 147.027 125.433C144.944 119.332 142.449 105.069 152.145 104.542Z" fill="#55A7D9"/>
<path d="M53.6008 104.018C56.9041 101.603 60.4798 106.16 57.4904 108.576C55.8381 109.91 54.1104 109.436 53.1377 108.323C52.5064 109.09 51.9155 109.891 51.3476 110.567C49.6176 112.63 47.9827 114.741 46.42 116.902C43.1748 121.39 40.3923 126.132 37.4836 130.788C34.6138 135.382 31.7654 140.001 29.1639 144.712C26.9599 148.703 24.0228 153.399 23.2676 157.774C24.4125 148.494 28.757 139.574 33.9311 131.393C39.0619 123.279 44.9507 114.418 52.8961 108.014C52.6698 107.709 52.5082 107.361 52.421 106.992C52.3338 106.623 52.3228 106.24 52.3887 105.866C52.4546 105.492 52.596 105.136 52.8044 104.818C53.0127 104.501 53.2837 104.228 53.6008 104.018V104.018Z" fill="#55A7D9"/>
<path d="M59.7463 92.9865C61.4448 92.6489 62.551 90.9968 62.2172 89.2964C61.8833 87.5961 60.2358 86.4914 58.5373 86.8291C56.8388 87.1667 55.7326 88.8188 56.0664 90.5191C56.4002 92.2195 58.0478 93.3241 59.7463 92.9865Z" stroke="#64B9FF" stroke-miterlimit="10"/>
<path d="M130.421 89.4229C132.12 89.0853 133.226 87.4332 132.892 85.7328C132.558 84.0325 130.911 82.9278 129.212 83.2655C127.514 83.6031 126.407 85.2552 126.741 86.9555C127.075 88.6559 128.723 89.7605 130.421 89.4229Z" stroke="#64B9FF" stroke-miterlimit="10"/>
<path d="M139.082 142.719C140.781 142.381 141.887 140.729 141.553 139.028C141.219 137.328 139.572 136.224 137.873 136.561C136.175 136.899 135.068 138.551 135.402 140.251C135.736 141.952 137.384 143.056 139.082 142.719Z" stroke="#64B9FF" stroke-miterlimit="10"/>
<path d="M132.398 126.817C133.136 126.67 133.616 125.952 133.471 125.213C133.326 124.475 132.61 123.995 131.872 124.141C131.134 124.288 130.654 125.006 130.799 125.745C130.944 126.483 131.66 126.963 132.398 126.817Z" stroke="#64B9FF" stroke-miterlimit="10"/>
<path d="M49.0353 105.242C49.7733 105.095 50.2539 104.377 50.1089 103.639C49.9638 102.9 49.248 102.42 48.51 102.567C47.7721 102.713 47.2914 103.431 47.4365 104.17C47.5815 104.909 48.2973 105.389 49.0353 105.242Z" stroke="#64B9FF" stroke-miterlimit="10"/>
<g clip-path="url(#clip0)">
<path d="M103.632 92.9743C97.6318 94.1697 92.1816 98.1909 90.3487 104.159C86.3919 99.3445 79.8286 97.7167 73.8286 98.9121C68.226 100.028 63.021 103.491 59.7586 108.37L62.8101 110.414L92.1666 113.386L118.179 99.383L120.225 96.3231C115.359 93.0631 109.234 91.858 103.632 92.9743V92.9743Z" fill="#ECECF1"/>
<path d="M120.224 96.3231C115.358 93.0632 109.234 91.8581 103.631 92.9743C97.6311 94.1697 92.1808 98.1909 90.348 104.159L92.1658 113.386L118.178 99.3831L120.224 96.3231Z" fill="#CFD4E2"/>
<path d="M87.0426 87.3791C86.0464 87.5775 85.3993 88.5454 85.5958 89.543L86.3069 93.1527C86.5035 94.1503 87.4687 94.7969 88.4649 94.5984C89.4612 94.4 90.1083 93.4321 89.9118 92.4345L89.2006 88.8248C89.0041 87.8272 88.0389 87.1806 87.0426 87.3791V87.3791Z" fill="#FFE470"/>
<path d="M118.846 96.0483C109.131 97.9837 99.7393 102.244 91.9133 108.323L91.2675 108.824L90.4805 108.609C80.9406 105.989 70.6428 105.652 60.9284 107.587C59.9321 107.786 59.285 108.754 59.4815 109.751L66.6403 146.089C66.8369 147.087 67.8021 147.733 68.7983 147.535C77.9547 145.71 87.6689 146.028 96.6631 148.497L98.3357 148.955C98.6173 149.031 98.905 149.038 99.1792 148.984C99.4559 148.929 99.719 148.81 99.948 148.634L101.321 147.569C108.699 141.838 117.559 137.82 126.716 135.996C127.712 135.797 128.359 134.829 128.163 133.832L121.004 97.494C120.807 96.4964 119.842 95.8498 118.846 96.0483V96.0483Z" fill="#55A7D9"/>
<path d="M99.9476 148.634L101.32 147.569C108.699 141.838 117.559 137.82 126.715 135.996C127.712 135.797 128.359 134.829 128.162 133.832L121.003 97.494C120.807 96.4964 119.842 95.8498 118.845 96.0483C109.131 97.9837 99.7389 102.244 91.9129 108.323L91.2671 108.824L99.1787 148.984C99.4555 148.928 99.7186 148.81 99.9476 148.634Z" fill="#2D6DB4"/>
<path d="M79.8767 95.76L75.5608 92.8685C74.7179 92.3038 74.4928 91.1616 75.058 90.3164C75.6231 89.4711 76.7638 89.2439 77.6067 89.8086L81.9227 92.7C82.7656 93.2648 82.9906 94.407 82.4255 95.2522C81.8602 96.0975 80.7197 96.3248 79.8767 95.76V95.76Z" fill="#FFE470"/>
<path d="M89.9111 92.4345L89.2 88.8248C89.0034 87.8272 88.0382 87.1805 87.042 87.379L88.4643 94.5984C89.4605 94.3999 90.1076 93.4321 89.9111 92.4345Z" fill="#FFC473"/>
<path d="M94.2953 92.8871C93.4524 92.3224 93.2274 91.1802 93.7925 90.335L96.6862 86.0071C97.2514 85.1618 98.392 84.9346 99.2349 85.4993C100.078 86.064 100.303 87.2062 99.7377 88.0515L96.8441 92.3794C96.2788 93.2246 95.1383 93.452 94.2953 92.8871Z" fill="#FFC473"/>
<path d="M114.258 112.551C112.554 113.106 110.885 113.758 109.234 114.454L108.621 111.34C108.424 110.343 107.459 109.696 106.463 109.894C105.467 110.093 104.82 111.061 105.016 112.058L105.797 116.022C103.862 116.975 101.962 118.002 100.131 119.146C99.2691 119.684 99.0044 120.819 99.5401 121.682C100.08 122.551 101.219 122.801 102.07 122.269C103.518 121.365 105.016 120.546 106.535 119.767L108.572 130.107C108.768 131.104 109.734 131.751 110.73 131.553C111.726 131.354 112.373 130.386 112.177 129.389L109.961 118.144C111.74 117.368 113.545 116.652 115.39 116.051C116.354 115.736 116.885 114.698 116.572 113.731C116.259 112.766 115.215 112.222 114.258 112.551Z" fill="#FFE470"/>
<path d="M112.177 129.389L109.961 118.144C111.74 117.368 113.545 116.652 115.39 116.051C116.354 115.736 116.885 114.698 116.572 113.731C116.259 112.766 115.215 112.222 114.258 112.551C112.554 113.106 110.885 113.758 109.234 114.454L108.621 111.34C108.424 110.343 107.459 109.696 106.463 109.894L110.73 131.553C111.726 131.354 112.373 130.386 112.177 129.389V129.389Z" fill="#FFC473"/>
</g>
<path d="M99.8425 151.785C99.8425 151.785 99.4555 151.641 98.8408 151.321" stroke="#399AE1" stroke-linecap="round" stroke-linejoin="round" stroke-dasharray="2 2"/>
<path d="M125.574 148.573C121.737 146.056 116.511 140.481 126.14 131.955C126.14 131.955 134.871 123.143 123.84 120.251C123.84 120.251 121.791 120.057 120.238 122.387C118.581 124.875 120.782 129.166 123.43 130.608C127.686 132.905 134.774 128.737 137.975 123.455C138.469 122.647 142.048 116.525 139.566 111.498C136.948 106.197 129.551 106.027 129.033 101.593C128.976 101.03 129.014 100.531 129.162 100.037" stroke="#399AE1" stroke-linecap="round" stroke-linejoin="round" stroke-dasharray="2 2"/>
<defs>
<clipPath id="clip0">
<rect width="62.7313" height="62.7895" fill="white" transform="matrix(0.980726 -0.195394 0.193293 0.981141 56.2812 93.5073)"/>
</clipPath>
</defs>
</svg>
